<?xml version="1.0" standalone="no"?>
<!DOCTYPE svg PUBLIC "-//W3C//DTD SVG 1.1//EN" "http://www.w3.org/Graphics/SVG/1.1/DTD/svg11.dtd" >
<svg xmlns="http://www.w3.org/2000/svg">
<metadata>
This is a custom SVG webfont generated by Font Squirrel.
Copyright   : Copyright c 2012 by Stairsfor All rights reserved
Designer    : Andrij Shevchenko
Foundry     : Stairsforcom
Foundry URL : httpstairsforcom
</metadata>
<defs>
<font id="ArsenalRegular" horiz-adv-x="1339" >
<font-face units-per-em="2048" ascent="1536" descent="-512" />
<missing-glyph horiz-adv-x="477" />
<glyph unicode=" "  horiz-adv-x="477" />
<glyph unicode="&#x09;" horiz-adv-x="477" />
<glyph unicode="&#xa0;" horiz-adv-x="477" />
<glyph unicode="!" horiz-adv-x="565" d="M192 75.5q0 42.5 29 69.5q29 25 64 25q39 0 65 -25q27 -27 27 -69.5t-27 -69.5q-27 -25 -65 -24q-35 0 -64 24q-29 27 -29 69.5zM203 1366v170h166v-170l-39 -932h-90z" />
<glyph unicode="&#x22;" horiz-adv-x="612" d="M70 1536l137 -4l-45 -471h-84zM358 1536l138 -4l-45 -471h-84z" />
<glyph unicode="#" horiz-adv-x="983" d="M100 446v84h181l55 267h-236v86h254l60 280l69 -20l-55 -260h213l55 258l70 -21l-49 -237h164v-86h-183l-55 -267h238v-84h-256l-58 -282l-69 20l53 262h-215l-53 -260l-70 21l49 239h-162zM354 530h215l56 267h-215z" />
<glyph unicode="$" horiz-adv-x="835" d="M74 266l51 72q10 -14 28.5 -36.5t85 -59.5t144.5 -37q115 0 173 57t58 139q0 76 -51 121t-123.5 69.5t-146.5 53.5t-125 90.5t-51 159.5q0 111 68.5 183.5t185.5 92.5l10 263h86l12 -256q61 -2 124 -21.5t93 -38.5l31 -18l-25 -88q-109 82 -233 82q-94 0 -152.5 -47.5 t-58.5 -118.5q0 -76 53.5 -123t128 -72.5t149.5 -54.5t128 -91.5t53 -160.5q0 -119 -73.5 -204t-217.5 -103l-8 -221h-86l-12 217q-61 4 -114.5 21.5t-86.5 39t-56.5 42t-32.5 34.5z" />
<glyph unicode="%" horiz-adv-x="1642" d="M98 971q0 176 86 281.5t236 105.5q147 0 234 -106.5t87 -280.5q0 -176 -86 -280.5t-235 -104.5q-154 0 -238 104.5t-84 280.5zM221 973q0 -145 51.5 -223t145.5 -78q96 0 148 79t52 222q0 145 -52 222t-146 77q-199 0 -199 -299zM483 25l576 1288l88 -21l-576 -1288z M903 356q0 176 86 281.5t236 105.5q147 0 234 -106.5t87 -280.5q0 -176 -86 -280.5t-235 -104.5q-154 0 -238 104.5t-84 280.5zM1026 358q0 -145 51 -223t146 -78q96 0 148 79t52 222q0 145 -52 222t-146 77q-199 0 -199 -299z" />
<glyph unicode="&#x26;" horiz-adv-x="1234" d="M98 358q0 129 76 212t186 118q-84 41 -139 119t-55 194q0 158 97 253.5t265 95.5q63 0 128 -15.5t98 -31.5l32 -17l-16 -88q-92 59 -211 59q-117 0 -179.5 -70.5t-62.5 -195.5q0 -129 60.5 -195.5t138.5 -66.5h252l68 295h67v-295h264v-88h-264v-358q0 -123 31 -166 t102 -43q37 0 72 6t51 13l17 7l4 -82q-55 -39 -189 -38q-160 0 -203 120q-96 -121 -280 -120q-209 0 -309.5 104t-100.5 274zM254 360q0 -287 276 -286q170 0 236 137q-2 18 -2 63v367h-275q-94 -4 -164.5 -78t-70.5 -203z" />
<glyph unicode="'" horiz-adv-x="323" d="M70 1536l137 -4l-45 -471h-84z" />
<glyph unicode="(" horiz-adv-x="628" d="M174 557q0 178 29.5 339t72.5 264.5t87.5 182t73.5 113.5l30 35l78 -43q-10 -12 -24.5 -35.5t-54.5 -106.5t-69.5 -177.5t-54.5 -250t-25 -321.5q0 -168 24 -320.5t56.5 -250t66.5 -171t57 -106.5l24 -33l-74 -43q-12 12 -31.5 36t-71 108t-91 181t-71.5 259t-32 340z " />
<glyph unicode=")" horiz-adv-x="628" d="M82 -324q10 12 24.5 36t54.5 108t69.5 178t54 248.5t24.5 320.5t-23.5 317.5t-56 250t-66.5 172t-58 107.5l-23 34l76 43q12 -12 31.5 -35.5t70.5 -107.5t90 -181.5t71 -259.5t32 -340t-31 -338.5t-74 -264t-86 -182.5t-74 -114l-30 -35z" />
<glyph unicode="*" horiz-adv-x="804" d="M39 1079l43 144l293 -162l-41 381h137l-45 -381l297 162l41 -144l-322 -73l228 -281l-113 -90l-156 332l-155 -332l-111 90l225 279z" />
<glyph unicode="+" horiz-adv-x="835" d="M70 520v96h305v357h90v-357h299v-96h-299v-356h-90v356h-305z" />
<glyph unicode="," horiz-adv-x="462" d="M92 -285q63 59 102 150.5t37 167.5h-6q-33 0 -59 22q-25 25 -25 64q0 34 25 63q23 20 57 21q37 0 60 -21l10 -14q23 -35 22 -98q0 -98 -51 -217t-129 -183z" />
<glyph unicode="-" horiz-adv-x="608" d="M70 520v96h469v-96h-469z" />
<glyph unicode="." horiz-adv-x="497" d="M153 75.5q0 42.5 29 69.5q27 25 64 25t65 -25q27 -27 27 -69.5t-27 -69.5q-29 -25 -65.5 -24.5t-63.5 24.5q-29 27 -29 69.5z" />
<glyph unicode="/" horiz-adv-x="854" d="M2 -512l768 2048h113l-766 -2048h-115z" />
<glyph unicode="0" horiz-adv-x="1150" d="M115 663.5q0 325.5 115.5 506t345 180.5t345 -180.5t115.5 -506t-115.5 -504.5t-345 -179t-345 179t-115.5 504.5zM279 664q0 -307 72.5 -448.5t224 -141.5t224 142t72.5 447.5t-73.5 448.5t-223.5 143q-152 0 -224 -143t-72 -448z" />
<glyph unicode="1" horiz-adv-x="755" d="M102 1155l306 176h122v-1331h-147v1212l-246 -137z" />
<glyph unicode="2" horiz-adv-x="972" d="M88 0v123q23 8 85.5 59t149.5 139.5t165.5 189.5t134 224t55.5 232q0 145 -58.5 213.5t-199.5 68.5q-68 0 -140.5 -28.5t-111.5 -56.5l-39 -27l-16 92q16 14 45.5 33.5t115.5 53.5t168 34q205 0 302.5 -99.5t97.5 -271.5q0 -119 -61.5 -248t-163 -243.5t-187.5 -195.5 t-180 -153h629v-139h-791z" />
<glyph unicode="3" horiz-adv-x="972" d="M80 125l49 80q12 -14 35.5 -36t99.5 -56.5t158 -34.5q145 0 220 80t75 231q0 135 -62.5 209t-183.5 74q-31 0 -60.5 -11.5t-43.5 -22.5l-15 -11l-53 61l377 502h-535l9 141h669v-96l-368 -481q25 6 55 6q164 0 265 -101.5t101 -269.5q0 -190 -120.5 -299.5t-313.5 -109.5 q-70 0 -132 15t-101 35.5t-69 42t-43 37.5z" />
<glyph unicode="4" horiz-adv-x="1007" d="M61 414q189 373 334 936l142 -19q-115 -438 -361 -903h469l35 709h117v-709h145v-82l-145 -10v-336h-152v336h-573z" />
<glyph unicode="5" horiz-adv-x="952" d="M53 123l53 76q10 -14 31 -34t92.5 -53.5t153.5 -33.5q150 0 236 89t86 251q0 143 -78 227t-207 84q-63 0 -111.5 -19.5t-64.5 -37.5l-2 -6l-62 8l62 657h557l-6 -143h-474l-34 -400q72 27 147 27q193 0 310.5 -106.5t117.5 -288.5q0 -203 -135 -321.5t-334 -118.5 q-66 0 -125 14t-96 35.5t-64.5 43t-39.5 36.5z" />
<glyph unicode="6" horiz-adv-x="1058" d="M115 512q0 82 6 150q20 346 137 517t309 171q63 0 129 -17.5t100 -35.5l33 -17l-20 -90q-109 66 -229 65q-299 0 -318 -542q123 127 297 127q186 0 294 -113t108 -301q0 -193 -106.5 -319.5t-305.5 -126.5q-209 0 -321.5 137t-112.5 395zM270 465q0 -395 279 -395 q133 0 194.5 99t61.5 259q0 147 -65.5 237.5t-198.5 90.5q-164 0 -262 -150l2 -2q-10 -51 -11 -139z" />
<glyph unicode="7" horiz-adv-x="862" d="M84 1184v147h739v-123q-135 -252 -259 -589.5t-179 -618.5h-162q100 463 473 1184h-612z" />
<glyph unicode="8" horiz-adv-x="1028" d="M98 348q0 242 271 332q-244 76 -244 330q0 160 104.5 250t284.5 90t285.5 -91t105.5 -255q0 -240 -250 -322q276 -74 277 -338q0 -186 -110.5 -275t-307.5 -89t-306.5 90t-109.5 278zM262 352q0 -289 252 -289t252 287q0 84 -28.5 144.5t-75 89t-82 41t-72.5 16.5 q-35 -4 -68.5 -16.5t-78 -41t-72 -88t-27.5 -143.5zM283 1004q0 -82 24.5 -141.5t65.5 -88.5t74.5 -41t68.5 -16q33 2 64.5 14t72.5 40t66.5 87.5t25.5 140.5q0 266 -231 266.5t-231 -261.5z" />
<glyph unicode="9" horiz-adv-x="1058" d="M98 883q0 193 113 330t311 137q207 0 314.5 -137.5t107.5 -395.5q0 -98 -4 -143q-14 -338 -142 -516t-325 -178q-88 0 -157.5 24.5t-95.5 48.5l-25 25l38 88q8 -10 27 -25.5t79 -41t128 -25.5q143 0 231 132t97 398q-106 -139 -295 -139q-184 0 -293 114.5t-109 303.5z M254 889q0 -150 66.5 -245t197.5 -95q111 0 177.5 56.5t84.5 117.5q6 55 6 141q0 199 -62 297.5t-202 98.5q-133 0 -200.5 -106.5t-67.5 -264.5z" />
<glyph unicode=":" horiz-adv-x="501" d="M153 75.5q0 42.5 29 69.5q27 25 64 25t65 -25q27 -27 27 -69.5t-27 -69.5q-29 -25 -65.5 -24.5t-63.5 24.5q-29 27 -29 69.5zM153 852q0 43 29 70q27 25 64 24.5t65 -24.5q27 -27 27 -70t-27 -70q-29 -25 -65.5 -24.5t-63.5 24.5q-29 27 -29 70z" />
<glyph unicode=";" horiz-adv-x="497" d="M113 -285q63 59 102 150.5t37 167.5h-6q-33 0 -60 22q-25 25 -24 64q-1 34 24 63q23 20 58 21q37 0 59 -21l10 -14q23 -35 23 -98q0 -98 -51.5 -217t-128.5 -183zM153 852q0 43 29 70q27 25 64 24.5t65 -24.5q27 -27 27 -70t-27 -70q-29 -25 -65.5 -24.5t-63.5 24.5 q-29 27 -29 70z" />
<glyph unicode="&#x3c;" horiz-adv-x="753" d="M125 651l491 408l52 -60l-402 -348l404 -350l-54 -59z" />
<glyph unicode="=" horiz-adv-x="962" d="M70 326v96h823v-96h-823zM70 715v96h823v-96h-823z" />
<glyph unicode="&#x3e;" horiz-adv-x="753" d="M86 301l397 350l-397 348l51 60l494 -408l-494 -409z" />
<glyph unicode="?" horiz-adv-x="841" d="M82 1444q12 12 35.5 30.5t105.5 49t172 30.5q178 0 268.5 -100t90.5 -242q0 -96 -32 -169.5t-80 -113.5t-104.5 -85t-104.5 -86t-79.5 -114t-31.5 -169q0 -29 2 -45l-64 -6q-10 55 -10 123q0 98 34.5 168.5t84 113.5t98.5 85t84 112t35 166q0 121 -55.5 194.5 t-172.5 73.5q-74 0 -138 -25.5t-93 -52.5l-29 -26zM207 75.5q0 42.5 29 69.5q27 25 63.5 25t65.5 -25q27 -27 26.5 -69.5t-26.5 -69.5q-29 -25 -66 -24.5t-63 24.5q-29 27 -29 69.5z" />
<glyph unicode="@" horiz-adv-x="1701" d="M115 385q0 430 205.5 671.5t592.5 241.5q332 0 509 -188t177 -528q0 -311 -100 -460t-253.5 -149t-180.5 111q-72 -113 -225.5 -113t-245.5 104.5t-92 311.5q0 199 99 324t261 125q123 0 205 -82l29 53h65v-623q0 -78 24.5 -107.5t71.5 -29.5q94 0 159 121t65 410 q0 315 -143.5 475.5t-424.5 160.5q-317 0 -491 -206.5t-174 -622.5q0 -377 170 -570.5t471 -193.5q92 0 173 20.5t132 49t89 57.5t54 49l17 21l39 -74q-6 -8 -17.5 -22.5t-54.5 -52.5t-95 -65.5t-143.5 -51t-193.5 -23.5q-377 0 -575.5 222t-198.5 634zM629 387 q-1 -340 239 -340q133 0 189 137v471q-47 106 -180 107q-123 0 -185.5 -98.5t-62.5 -276.5z" />
<glyph unicode="A" horiz-adv-x="1163" d="M47 0l449 1331h182l440 -1331h-162l-139 410h-522l-139 -410h-109zM324 494h467l-232 718z" />
<glyph unicode="B" horiz-adv-x="1110" d="M193 0v1331h335q201 0 310.5 -91t109.5 -241q0 -201 -192 -301q119 -33 187.5 -114.5t68.5 -206.5q0 -180 -120 -278.5t-362 -98.5h-337zM348 90h176q334 0 334 293q0 131 -71.5 196.5t-188.5 65.5h-250v-555zM348 729h242q72 0 140.5 61.5t68.5 198.5q0 125 -76 188.5 t-201 63.5h-174v-512z" />
<glyph unicode="C" horiz-adv-x="1167" d="M98 653q0 319 156 508t418 189q94 0 191.5 -28t148.5 -56l51 -29l-19 -98q-20 12 -54 30.5t-128 48t-174 29.5q-199 0 -311.5 -150.5t-112.5 -439.5q0 -285 115 -430t321 -145q70 0 132.5 20.5t104.5 50t72.5 59.5t45.5 50l14 21l57 -66q-6 -10 -16 -25.5t-49 -56.5 t-86 -72.5t-126 -57t-167 -25.5q-276 0 -430 179t-154 494z" />
<glyph unicode="D" horiz-adv-x="1298" d="M193 0v1331h405q287 0 445.5 -173t158.5 -496q0 -322 -156.5 -492t-447.5 -170h-405zM348 98h252q434 0 434 564q0 571 -436 571h-250v-1135z" />
<glyph unicode="E" horiz-adv-x="1038" d="M193 0v1331h716v-98h-561v-512h514v-94h-514v-529h606v-98h-761z" />
<glyph unicode="F" horiz-adv-x="950" d="M193 0v1331h731v-98h-576v-531h496v-94h-496v-608h-155z" />
<glyph unicode="G" horiz-adv-x="1269" d="M98 662q0 326 156 507t440 181q94 0 191.5 -28t148.5 -56l51 -29l-18 -98q-20 12 -54 30.5t-128 48t-174 29.5q-227 0 -337 -146.5t-110 -438.5q0 -287 106.5 -433.5t297.5 -146.5q84 0 147.5 26.5t97 69.5t47 70.5t21.5 54.5v301h-272v88h403v-692h-76l-39 145 q-114 -165 -349 -165h-3q-260 0 -403.5 180t-143.5 502z" />
<glyph unicode="H" horiz-adv-x="1306" d="M193 0v1331h155v-598h608v598h156v-1331h-156v639h-608v-639h-155z" />
<glyph unicode="I" horiz-adv-x="542" d="M193 0v1331h155v-1331h-155z" />
<glyph unicode="J" horiz-adv-x="741" d="M12 66l41 79q6 -8 16.5 -19t53.5 -29.5t96 -18.5q190 0 191 313v940h153v-940q0 -229 -82 -320t-227 -91q-84 0 -144.5 21.5t-78.5 42.5z" />
<glyph unicode="K" horiz-adv-x="1187" d="M193 0v1331h155v-725l162 144l448 581h125l-467 -594l531 -737h-195l-450 618l-154 -129v-489h-155z" />
<glyph unicode="L" horiz-adv-x="964" d="M193 0v1331h155v-1233h592v-98h-747z" />
<glyph unicode="M" horiz-adv-x="1710" d="M193 0l6 1331l4 -6l-2 6h190l469 -1141h2l469 1141h180l7 -1331h-152l-6 1141h-2l-461 -1141h-125l-463 1141l-4 -1141h-112z" />
<glyph unicode="N" horiz-adv-x="1333" d="M193 0v1331h161l680 -1098l-6 50v1048h113v-1331h-135l-709 1135h-2l10 -64v-1071h-112z" />
<glyph unicode="O" d="M98 664q0 317 150.5 501.5t419 184.5t421 -184.5t152.5 -501.5q0 -319 -151.5 -501.5t-421.5 -182.5q-268 0 -419 182t-151 502zM264 664q0 -287 103.5 -436.5t300 -149.5t302 149.5t105.5 436.5q0 285 -105.5 436t-301.5 151q-195 0 -299.5 -151.5t-104.5 -435.5z" />
<glyph unicode="P" horiz-adv-x="1015" d="M193 0v1331h319q205 0 318.5 -106.5t113.5 -315.5q0 -229 -126 -335.5t-302 -106.5h-168v-467h-155zM348 553h146q287 0 286 350q1 338 -284 338h-148v-688z" />
<glyph unicode="Q" d="M98 664q0 317 150.5 501.5t419.5 184.5q270 0 421.5 -180.5t151.5 -499.5q0 -285 -123 -466t-344 -216q150 -227 301 -228q34 0 68 13l10 -78q-49 -20 -109 -21q-121 0 -238.5 86t-189.5 222q-246 16 -382 197t-136 485zM264 664q0 -285 104.5 -435.5t299.5 -150.5 q197 0 302 150.5t105 435.5q0 283 -106.5 435t-301 152t-299 -152.5t-104.5 -434.5z" />
<glyph unicode="R" horiz-adv-x="1103" d="M193 0v1331h321q203 0 317.5 -105.5t114.5 -301.5q0 -158 -67.5 -258.5t-178.5 -143.5l334 -522h-178l-305 494h-203v-494h-155zM348 586h166q133 0 200.5 75.5t67.5 258.5q0 321 -286 321h-148v-655z" />
<glyph unicode="S" horiz-adv-x="1003" d="M90 154l51 79q4 -6 11.5 -16t36 -36.5t63.5 -47t95.5 -37t129.5 -16.5q129 0 203 74.5t74 185.5q0 94 -62.5 155.5t-150.5 97.5t-176.5 75t-150.5 117.5t-62 197.5q0 168 106.5 267.5t284.5 99.5q88 0 166.5 -29t113.5 -57l35 -29l-20 -90q-12 12 -36 30.5t-98.5 49 t-152.5 30.5q-115 0 -180.5 -63.5t-65.5 -171.5q0 -94 62.5 -155.5t150.5 -96.5t176 -75t150.5 -122t62.5 -206q0 -170 -115.5 -277.5t-308.5 -107.5q-84 0 -155.5 18t-113.5 43t-71.5 50.5t-41.5 43.5z" />
<glyph unicode="T" horiz-adv-x="944" d="M14 1233v98h916v-98h-381v-1233h-156v1233h-379z" />
<glyph unicode="U" horiz-adv-x="1269" d="M176 434v897h154v-862q0 -186 82 -285.5t239 -99.5q164 0 247 101.5t83 283.5v862h113v-897q0 -209 -115 -331.5t-344 -122.5q-223 0 -341 122.5t-118 331.5z" />
<glyph unicode="V" horiz-adv-x="1122" d="M31 1331h162l387 -1216l393 1216h114l-442 -1331h-180z" />
<glyph unicode="W" horiz-adv-x="1736" d="M31 1331h164l303 -1153l325 1153h138l331 -1151l295 1151h115l-359 -1331h-143l-332 1135l-327 -1135h-144z" />
<glyph unicode="X" horiz-adv-x="1107" d="M37 0l426 662l-410 669h189l329 -557l344 557h129l-407 -645l434 -686h-190l-351 571h-2l-354 -571h-137z" />
<glyph unicode="Y" horiz-adv-x="1038" d="M4 1331h174l367 -655l364 655h125l-434 -770v-561h-156v551z" />
<glyph unicode="Z" horiz-adv-x="1079" d="M82 0v82l721 1151h-703v98h893v-84l-723 -1149h723v-98h-911z" />
<glyph unicode="[" horiz-adv-x="684" d="M180 -156v1592h482v-90h-351v-1409h351v-93h-482z" />
<glyph unicode="\" horiz-adv-x="854" d="M-29 1536h113l768 -2048h-113z" />
<glyph unicode="]" horiz-adv-x="684" d="M23 -63h350v1409h-350v90h483v-1592h-483v93z" />
<glyph unicode="^" horiz-adv-x="688" d="M70 1065l272 342l276 -342l-51 -53l-223 264l-227 -264z" />
<glyph unicode="_" horiz-adv-x="1277" d="M70 -203h1138v-96h-1138v96z" />
<glyph unicode="`" horiz-adv-x="423" d="M-20 1450l126 33l170 -293l-81 -16z" />
<glyph unicode="a" horiz-adv-x="976" d="M66 231q0 301 579 363v108q0 145 -47 198.5t-166 53.5q-53 0 -115.5 -22.5t-98.5 -43.5l-36 -22l-16 84q139 94 289 94q176 0 258 -73.5t82 -259.5v-502q0 -139 53 -139q14 0 33.5 4t32.5 9l14 5l6 -70q-98 -38 -157 -38h-3q-53 0 -81.5 33.5t-35.5 119.5h-2 q-2 -6 -9 -16.5t-30.5 -37t-54.5 -47t-83 -36.5t-113 -16q-135 0 -217 66.5t-82 184.5zM219 250q0 -88 51.5 -134t139.5 -46q47 0 89 15t67.5 36.5t44 44t26.5 38.5l8 15v299q-426 -47 -426 -268z" />
<glyph unicode="b" horiz-adv-x="1056" d="M154 0v1532l149 8v-633h2q2 6 8 15.5t27.5 33t50.5 42t78 34t109 15.5q182 0 292.5 -134.5t110.5 -371.5q0 -258 -108.5 -411t-313.5 -153q-176 0 -270 103l-29 -80h-106zM303 168q8 -12 26.5 -30.5t72 -40t118.5 -21.5q158 0 230.5 115.5t72.5 348.5q0 408 -288 408 q-55 0 -102.5 -19.5t-74 -50t-38 -48t-17.5 -29.5v-633z" />
<glyph unicode="c" horiz-adv-x="866" d="M76 502q0 262 113.5 402t332.5 140q72 0 143.5 -22.5t107.5 -43.5l36 -22l-18 -84q-117 82 -252 82q-158 0 -232 -104.5t-74 -345.5q0 -434 297 -434q49 0 94.5 13t73 31.5t48 37t29.5 31.5l9 14l66 -43q-4 -6 -10 -18.5t-34 -42.5t-62.5 -53.5t-95 -41.5t-130.5 -18 q-213 0 -327.5 131t-114.5 391z" />
<glyph unicode="d" horiz-adv-x="1056" d="M76 483q0 256 109.5 408.5t308.5 152.5q84 0 148.5 -24.5t87.5 -48.5l24 -25h2v586l147 8v-1540h-127l-16 121q-12 -25 -35 -51.5t-88.5 -58t-149.5 -31.5q-186 0 -298.5 133t-112.5 370zM233 487q0 -407 287 -407q47 0 89 14.5t67.5 36t44 43t27.5 35.5l8 14v629 q-8 10 -23.5 25.5t-72 42t-121.5 26.5q-305 0 -306 -459z" />
<glyph unicode="e" horiz-adv-x="927" d="M76 492q0 258 112.5 405t307.5 147q176 0 271 -121.5t95 -344.5l-10 -95h-621q0 -413 298 -413h1q51 0 97.5 13t75 32.5t51 40t31.5 33.5l10 14l59 -49q-4 -6 -11 -18.5t-37 -42.5t-65.5 -53.5t-96 -41.5t-130.5 -18q-205 0 -321.5 128t-116.5 384zM233 569h490 q2 20 2 39q0 348 -229 348q-242 0 -263 -387z" />
<glyph unicode="f" horiz-adv-x="641" d="M88 924v86l107 12v147q0 199 61 292t207 93q49 0 97 -15t73 -30l24 -14l-20 -80q-70 47 -148 47q-80 0 -113.5 -65.5t-33.5 -243.5v-129h297v-100h-297v-924h-147v924h-107z" />
<glyph unicode="g" horiz-adv-x="923" d="M41 -199q0 199 170 269q-37 43 -37 120q0 100 94 172q-172 88 -172 320q0 186 105.5 274t271.5 88q80 0 141 -20h2l263 -2v-80l-131 -4q82 -92 81 -256q0 -176 -95 -270.5t-263 -94.5q-70 0 -125 15q-72 -47 -72 -107q0 -55 45.5 -76.5t145.5 -21.5q448 0 448 -314 q0 -169 -111.5 -257t-318.5 -88q-217 0 -329.5 85t-112.5 248zM158 -197q0 -243 322 -243h3q143 0 221 58t78 170q0 214 -333 214q-96 0 -154 16q-137 -57 -137 -215zM240 682q0 -139 59 -211t168 -72q217 0 217 285q0 272 -219 272q-225 0 -225 -274z" />
<glyph unicode="h" horiz-adv-x="1048" d="M152 0v1532l149 8v-608h2l6 6q6 6 17.5 16.5t28 21.5t41 23.5t53 22.5t67.5 16t80 6q150 0 230.5 -82.5t80.5 -246.5v-715h-147v696q0 240 -213 240q-74 0 -135.5 -25.5t-85.5 -51.5l-25 -25v-834h-149z" />
<glyph unicode="i" horiz-adv-x="454" d="M141 1318.5q0 38.5 27 65.5q23 23 59 23q39 0 62 -21q24 -26 24 -64q0 -14 -2.5 -25.5t-8 -22.5t-13.5 -21q-28 -22 -59 -22h-3q-37 0 -59 22q-27 27 -27 65.5zM152 0v1024h149v-1024h-149z" />
<glyph unicode="j" horiz-adv-x="491" d="M-100 -487l28 84q39 -33 103 -33q80 0 118.5 82t38.5 270v1108h150v-1108q0 -448 -288 -448h-1q-49 0 -86 11t-50 22zM178 1318.5q0 38.5 27 65.5q23 23 59 23q39 0 62 -21q24 -26 24 -64q0 -14 -2.5 -25.5t-8 -22.5t-13.5 -21q-28 -22 -59 -22h-3q-37 0 -59 22 q-27 27 -27 65.5z" />
<glyph unicode="k" horiz-adv-x="933" d="M152 0v1532l149 8v-985l125 86l305 383h113l-338 -420l381 -604h-170l-326 516l-90 -55v-461h-149z" />
<glyph unicode="l" horiz-adv-x="456" d="M154 0v1532l147 8v-1540h-147z" />
<glyph unicode="m" horiz-adv-x="1484" d="M154 0v1024h122l19 -109q113 129 289 129q166 0 215 -124q18 20 46.5 43.5t100.5 52t152 28.5q129 0 188.5 -67.5t59.5 -224.5v-752h-150v735q0 119 -37 161t-117 42q-59 0 -112 -25.5t-74.5 -46t-36.5 -41.5q4 -45 4 -71v-754h-149v735q0 117 -36 160t-114 43 q-59 0 -113.5 -25.5t-77 -47t-32.5 -38.5v-827h-147z" />
<glyph unicode="n" horiz-adv-x="1048" d="M154 0v1024h122l19 -98q101 118 300 118h3q147 0 229 -82.5t82 -246.5v-715h-149v684q0 252 -211 252q-74 0 -136.5 -25.5t-86.5 -51.5l-25 -25v-834h-147z" />
<glyph unicode="o" horiz-adv-x="1026" d="M76 512q0 254 111.5 393t324.5 139t324.5 -139t111.5 -393q0 -252 -113.5 -392t-322.5 -140q-213 0 -324.5 139t-111.5 393zM233 512q0 -223 68 -332.5t211 -109.5q279 0 279 442t-279 442q-143 0 -211 -109.5t-68 -332.5z" />
<glyph unicode="p" horiz-adv-x="1056" d="M154 -516v1540h122l19 -123q10 16 26.5 33.5t51.5 45.5t90 46t123 18q180 0 287.5 -133t107.5 -370q0 -258 -108.5 -409.5t-307.5 -151.5q-84 0 -149.5 24.5t-88.5 48.5l-24 25h-2v-590zM301 168q76 -90 215 -90q160 0 233.5 113.5t73.5 348.5q0 404 -286 404 q-47 0 -89 -14.5t-68 -35t-44.5 -40.5t-26.5 -35l-8 -14v-637z" />
<glyph unicode="q" horiz-adv-x="1056" d="M78 483q0 256 111.5 408.5t312.5 152.5q166 0 260 -94l35 74h106v-1536l-149 -4v639h-2q-2 -6 -8.5 -15.5t-28 -34t-49 -44t-77.5 -34.5t-108 -15q-182 0 -292.5 133t-110.5 370zM233 487q0 -217 76 -312t217 -95q76 0 132.5 35t75.5 69l20 35v639q-78 88 -211 88 q-309 0 -310 -459z" />
<glyph unicode="r" horiz-adv-x="673" d="M152 0v1024h110l23 -211q2 10 6 25.5t22.5 55.5t41 70.5t63.5 55t90 24.5q29 0 66.5 -8t61.5 -16l23 -8l-14 -113q-90 31 -153 31q-45 0 -84 -26.5t-60.5 -64.5t-32 -62.5t-14.5 -39.5v-737h-149z" />
<glyph unicode="s" horiz-adv-x="835" d="M74 131l51 72q10 -14 28.5 -37t85 -59.5t144.5 -36.5q115 0 173 57t58 139q0 76 -51 121t-123.5 69.5t-146.5 53.5t-125 90.5t-51 159.5q0 131 95 207.5t245 76.5q66 0 133 -20t102 -40l35 -19l-25 -88q-108 81 -230 81h-3q-94 0 -152.5 -47t-58.5 -118q0 -76 53.5 -123 t128 -73t149.5 -54.5t128 -91t53 -160.5q0 -133 -92 -222t-270 -89q-70 0 -129.5 15t-95.5 37.5t-62.5 45t-36.5 38.5z" />
<glyph unicode="t" horiz-adv-x="667" d="M82 924v86l106 12l56 326h94v-324h262v-100h-262v-613q0 -133 25.5 -183t89.5 -50q37 0 69.5 6t47.5 11l16 5l10 -82q-56 -38 -183 -38h-7q-111 0 -164.5 68.5t-53.5 225.5v650h-106z" />
<glyph unicode="u" horiz-adv-x="1048" d="M139 309v715h150v-684q0 -252 213 -252q74 0 134 25.5t85 52.5l24 27v831h150v-1024h-125l-20 98q-14 -18 -38 -39.5t-96.5 -50t-162.5 -28.5q-150 0 -232 82.5t-82 246.5z" />
<glyph unicode="v" horiz-adv-x="890" d="M27 1024h176l266 -862l283 862h112l-352 -1024h-135z" />
<glyph unicode="w" horiz-adv-x="1345" d="M29 1024h166l192 -836l244 836h117l256 -836l200 836h115l-277 -1024h-131l-239 825l-242 -825h-133z" />
<glyph unicode="x" horiz-adv-x="907" d="M25 0l340 510l-324 514h176l252 -428l264 428h121l-317 -489l344 -535h-174l-275 442l-285 -442h-122z" />
<glyph unicode="y" horiz-adv-x="919" d="M31 1024h176l303 -856l274 856h109l-354 -1040q-43 -121 -77 -201t-81 -159t-103.5 -117.5t-121.5 -38.5q-37 0 -68 6t-43 13l-12 7l16 94q39 -18 84 -18q94 0 157.5 101.5t141.5 316.5z" />
<glyph unicode="z" horiz-adv-x="849" d="M72 0v82l524 850h-479l-6 92h657v-82l-520 -850h516l4 -92h-696z" />
<glyph unicode="{" horiz-adv-x="768" d="M201 549v98q63 0 126.5 53.5t63.5 128.5q0 61 -27.5 200.5t-27.5 213.5q0 143 80 216t280 73v-88q-127 0 -180 -53.5t-53 -157.5q0 -66 27.5 -209t27.5 -211q0 -74 -43 -129t-117 -86q74 -31 117 -86t43 -129q0 -68 -27.5 -211t-27.5 -209q0 -104 53 -157.5t180 -53.5 v-88q-201 0 -280.5 73t-79.5 216q0 74 27.5 213t27.5 201q0 76 -63.5 129t-126.5 53z" />
<glyph unicode="|" horiz-adv-x="598" d="M248 -512v2048h102v-2048h-102z" />
<glyph unicode="}" horiz-adv-x="768" d="M123 -248q125 0 178 53.5t53 157.5q0 66 -27.5 209t-27.5 211q0 147 158 215q-158 68 -158 215q0 68 27.5 211t27.5 209q0 104 -53 157.5t-178 53.5v88q201 0 280.5 -73t79.5 -216q0 -74 -28.5 -213t-28.5 -201q0 -76 64.5 -129t127.5 -53v-98q-63 0 -127.5 -53.5 t-64.5 -128.5q0 -61 28.5 -200.5t28.5 -213.5q0 -143 -79.5 -216t-280.5 -73v88z" />
<glyph unicode="~" horiz-adv-x="1173" d="M63 662q2 8 7.5 23t28 52t51 65.5t83 52.5t119.5 24q88 0 165 -34t124 -73t113.5 -72.5t136.5 -33.5q59 0 100 25.5t52 49.5l12 25l57 -39q-2 -8 -6 -22.5t-24.5 -50.5t-47 -62.5t-76 -49t-108.5 -22.5q-80 0 -153.5 33t-120 74t-116 73.5t-143.5 32.5q-41 0 -75.5 -12 t-55 -28.5t-35 -33t-20.5 -28.5l-6 -13z" />
<glyph unicode="&#xa1;" horiz-adv-x="565" d="M186 946.5q0 42.5 29 69.5q27 25 63.5 24.5t65.5 -24.5q27 -27 27 -70t-27 -69q-29 -25 -65.5 -25t-63.5 25q-29 27 -29 69.5zM197 -342l39 932h90l36 -932v-170h-165v170z" />
<glyph unicode="&#xa2;" horiz-adv-x="866" d="M76 639q0 240 95 378t280 161l8 256h86l12 -254q63 -4 127 -25.5t94 -41.5l31 -19l-18 -84q-117 82 -252 82q-158 0 -232 -104.5t-74 -346.5q0 -434 297 -434q49 0 94.5 13t73 31.5t48 37t29.5 32.5l9 13l66 -43q-2 -6 -9 -16.5t-32 -39t-54.5 -50t-83 -42t-114.5 -26.5 l-6 -219h-86l-12 223q-377 39 -377 518z" />
<glyph unicode="&#xa3;" horiz-adv-x="1040" d="M94 0v137h78q119 82 119 303q0 68 -6 138l-191 6v88h180q-23 225 -22 317q0 174 93 267.5t267 93.5q55 0 120 -19.5t103 -38.5l37 -18l-24 -88q-115 66 -205 65q-115 0 -170 -63.5t-55 -206.5q0 -113 4 -309h457v-97h-457q-6 -315 -105 -438h678v-137h-901z" />
<glyph unicode="&#xa4;" horiz-adv-x="1105" d="M102 1104l58 76l192 -248q86 82 203 82q111 0 197 -76l194 240l55 -76l-206 -215q71 -101 71 -244q0 -141 -69 -242l207 -219l-56 -76l-192 246q-84 -80 -201 -80t-201 78l-192 -241l-58 75l207 217q-68 96 -67 242q0 137 65 240zM330 645q0 -129 61.5 -206t163.5 -77 q100 0 161.5 76t61.5 205q0 131 -61.5 206t-161.5 75q-102 0 -163.5 -75t-61.5 -204z" />
<glyph unicode="&#xa5;" horiz-adv-x="1153" d="M59 1331h174l367 -655l365 655h125l-381 -676h227v-82h-274l-7 -12v-182h281v-82h-281v-297h-155v297h-301v82h301v172l-13 22h-288v82h241z" />
<glyph unicode="&#xa6;" horiz-adv-x="598" d="M248 307h102v-819h-102v819zM248 717v819h102v-819h-102z" />
<glyph unicode="&#xa7;" horiz-adv-x="995" d="M137 631q0 168 131 248q-61 66 -61 165q0 131 91 218.5t263 87.5q68 0 137.5 -23.5t104.5 -48.5l35 -25l-17 -82q-117 88 -239 89q-121 0 -175.5 -59.5t-54.5 -139.5q0 -76 58.5 -126t141.5 -79t165 -60.5t140 -98t58 -169.5q0 -166 -143 -254q57 -68 57 -161 q0 -129 -94 -212t-278 -83q-96 0 -173 25.5t-106 50.5l-28 24l34 82q8 -10 26.5 -25.5t85 -41t142.5 -25.5q131 0 188.5 54t57.5 136q0 74 -56.5 122t-137 76t-160.5 61.5t-136.5 101.5t-56.5 172zM242 659q0 -96 75.5 -149t207.5 -98t190 -86q96 57 96 178q0 70 -53 120 t-121 73.5t-162 59.5t-147 70q-86 -49 -86 -168z" />
<glyph unicode="&#xa8;" horiz-adv-x="768" d="M78 1319q-1 38 22 61q27 20 56 21q27 0 53 -21q23 -27 22 -61q0 -33 -22 -59q-27 -20 -53 -21q-29 0 -56 21q-23 23 -22 59zM393 1319q0 38 23 61q27 20 53.5 20.5t52.5 -20.5q25 -25 25 -61q0 -35 -25 -59q-27 -20 -53.5 -20.5t-52.5 20.5q-23 23 -23 59z" />
<glyph unicode="&#xa9;" horiz-adv-x="1492" d="M150 661.5q0 321.5 158.5 509t434.5 187.5q279 0 437.5 -187.5t158.5 -509t-157.5 -506t-438 -184.5t-437 184.5t-156.5 506zM231 659q0 -291 136.5 -452.5t373.5 -161.5q242 0 380.5 161.5t138.5 452.5q0 293 -139.5 459t-379.5 166q-238 0 -374 -166t-136 -459z M449 649q0 172 89 270.5t234 98.5q53 0 102.5 -17.5t70.5 -35.5l22 -19l-21 -63q-68 66 -164 65q-106 0 -165.5 -75.5t-59.5 -223.5q0 -141 62.5 -216t164.5 -75q57 0 101.5 27t60.5 53l17 27l38 -43q-2 -6 -6 -15.5t-23.5 -32t-43 -41t-67.5 -32.5t-97 -14q-135 0 -225 97 t-90 265z" />
<glyph unicode="&#xaa;" horiz-adv-x="796" d="M68 842q0 231 460 264v35q0 94 -38.5 138t-127.5 44q-57 0 -108 -20.5t-74 -41.5l-22 -22l-33 49q8 12 24.5 29.5t83 46.5t152.5 29q141 0 209 -63.5t68 -199.5v-475h-105l-27 109q-8 -23 -25.5 -47.5t-70.5 -53t-127 -28.5q-117 0 -178 54t-61 153zM199 854 q-1 -143 161 -143q119 0 168 123v213q-72 -6 -123 -17.5t-102 -32t-77.5 -56.5t-26.5 -87z" />
<glyph unicode="&#xab;" horiz-adv-x="991" d="M170 512l317 350l45 -53l-221 -299l221 -303l-47 -55zM502 512l317 350l45 -53l-221 -299l221 -303l-47 -55z" />
<glyph unicode="&#xac;" horiz-adv-x="915" d="M109 604v94h694v-436h-88v342h-606z" />
<glyph unicode="&#xad;" horiz-adv-x="634" d="M82 520v96h469v-96h-469z" />
<glyph unicode="&#xae;" horiz-adv-x="1263" d="M106 927.5q0 284.5 141.5 453.5t383 169t384 -169t142.5 -453.5t-139 -452.5t-387 -168t-386.5 168t-138.5 452.5zM186 926q0 -256 117 -400.5t328 -144.5q209 0 327.5 145.5t118.5 399.5q0 256 -118.5 405.5t-327.5 149.5t-327 -149.5t-118 -405.5zM463 602v649h170 q231 0 231 -184q0 -150 -141 -190l135 -275h-88l-129 262h-98v-262h-80zM543 915h90q143 0 143 152q0 129 -143 129h-90v-281z" />
<glyph unicode="&#xaf;" horiz-adv-x="808" d="M213 1303v73h381v-73h-381z" />
<glyph unicode="&#xb0;" horiz-adv-x="837" d="M98 1173.5q0 176.5 86 282t236 105.5q147 0 234 -106.5t87 -280.5q0 -176 -86 -281t-235 -105q-154 0 -238 104.5t-84 281zM221 1176q0 -145 51.5 -223.5t145.5 -78.5q96 0 148 79.5t52 222.5q0 145 -52 222t-146 77q-199 0 -199 -299z" />
<glyph unicode="&#xb1;" horiz-adv-x="962" d="M70 309v97h823v-97h-823zM135 1028v96h305v357h90v-357h299v-96h-299v-356h-90v356h-305z" />
<glyph unicode="&#xb2;" horiz-adv-x="772" d="M84 471v113q27 10 93.5 73.5t142 153.5t134 209t58.5 217q0 117 -43 172t-145 55q-39 0 -89.5 -21.5t-80.5 -42.5l-31 -22l-17 80q123 94 252 94q152 0 226.5 -83t74.5 -222q0 -289 -432 -647h455v-129h-598z" />
<glyph unicode="&#xb3;" horiz-adv-x="770" d="M82 549l39 72q4 -6 22.5 -22.5t68.5 -37t110 -20.5q102 0 160.5 63.5t58.5 177.5q0 106 -41 162.5t-119 56.5q-49 0 -86 -36l-2 -2l-49 55l276 389h-389l8 129h506v-88l-270 -371q4 0 15 1t18 1q119 0 194.5 -82t75.5 -219q0 -154 -96.5 -239.5t-241.5 -85.5 q-84 0 -148.5 23.5t-87.5 47.5z" />
<glyph unicode="&#xb4;" horiz-adv-x="423" d="M115 1180l157 297l129 -31l-208 -277z" />
<glyph unicode="&#xb5;" horiz-adv-x="1060" d="M152 309v715h149v-684q0 -252 213 -252q74 0 134.5 25.5t84.5 52.5l25 27v831h149v-1024h-125l-20 98q-14 -18 -38 -39.5t-96.5 -50t-162.5 -28.5q-100 0 -170 36q10 -293 10 -528h-151v772q-2 16 -2 49z" />
<glyph unicode="&#xb6;" horiz-adv-x="1222" d="M98 922q0 205 120 307t376 102h532v-112h-118v-1219h-125v1219h-195v-1219h-123v500q-231 0 -349 99t-118 323z" />
<glyph unicode="&#xb7;" horiz-adv-x="497" d="M153 690.5q0 42.5 29 69.5q27 25 64 24.5t65 -24.5q27 -27 27 -70t-27 -69q-29 -25 -65.5 -25t-63.5 25q-29 27 -29 69.5z" />
<glyph unicode="&#xb8;" horiz-adv-x="479" d="M51 -428l37 41q45 -66 137 -66q135 0 135 140q0 53 -43 81.5t-86 35t-43 8.5l25 182h57l-14 -135l49 -13q49 -12 98.5 -53t49.5 -110q0 -92 -54.5 -144.5t-158.5 -52.5q-61 0 -108.5 21.5t-63.5 42.5z" />
<glyph unicode="&#xb9;" horiz-adv-x="770" d="M143 1380l242 156h111v-1065h-136v942l-182 -119z" />
<glyph unicode="&#xba;" horiz-adv-x="858" d="M76 1014q0 180 89 279.5t263 99.5t263 -99.5t89 -279.5q0 -178 -91 -278.5t-261 -100.5q-174 0 -263 99.5t-89 279.5zM215 1014q0 -311 213 -311.5t213 311.5q0 307 -213 307t-213 -307z" />
<glyph unicode="&#xbb;" horiz-adv-x="991" d="M125 205l221 297l-219 305l47 55l313 -362l-315 -348zM457 205l221 297l-219 305l47 55l313 -362l-315 -348z" />
<glyph unicode="&#xbc;" horiz-adv-x="1488" d="M143 1380l242 156h111v-1065h-136v942l-182 -119zM449 41l620 1151l72 -43l-621 -1149zM731 -172q121 266 221 741l129 -16q-82 -373 -247 -711h307v334l33 221h106v-555h100v-73l-100 -13v-268h-139v268h-400z" />
<glyph unicode="&#xbd;" horiz-adv-x="1609" d="M143 1380l242 156h111v-1065h-136v942l-182 -119zM449 41l620 1151l72 -43l-621 -1149zM881 -399q27 10 93 73.5t142 153.5t134.5 209t58.5 217q0 117 -43 171t-148 54q-39 0 -88 -20.5t-80 -41.5l-30 -22l-19 80q125 94 254 94q152 0 226.5 -84t74.5 -221 q0 -291 -430 -647h451v-129h-596v113z" />
<glyph unicode="&#xbe;" horiz-adv-x="1587" d="M84 549l39 72q4 -6 22.5 -22.5t68.5 -37t110 -20.5q102 0 160.5 63.5t58.5 177.5q0 106 -41 162.5t-119 56.5q-49 0 -86 -36l-2 -2l-49 55l276 389h-389l8 129h506v-88l-270 -371q4 0 15 1t18 1q119 0 194.5 -82t75.5 -219q0 -154 -96.5 -239.5t-241.5 -85.5 q-84 0 -148.5 23.5t-87.5 47.5zM545 41l620 1151l72 -43l-621 -1149zM829 -172q122 266 222 741l129 -16q-82 -373 -248 -711h307v334l33 221h106v-555h101v-73l-101 -13v-268h-139v268h-399z" />
<glyph unicode="&#xbf;" horiz-adv-x="841" d="M76 -190q0 84 24.5 148.5t62.5 105t85 75.5l94 70q47 35 85 77t62.5 106.5t24.5 148.5q0 8 -1 22.5t-1 20.5l70 6q10 -72 10 -113q0 -86 -25.5 -151.5t-64.5 -101.5t-84 -75.5t-84 -74.5t-64.5 -97.5t-25.5 -146.5q0 -268 252 -268q51 0 100 11t72 23l22 11l37 -84 q-84 -55 -246 -55q-213 0 -309 100t-96 242zM448 946.5q0 42.5 29 69.5q27 25 64 24.5t65 -24.5q27 -27 27 -70t-27 -69q-29 -25 -65.5 -25t-63.5 25q-29 27 -29 69.5z" />
<glyph unicode="&#xc0;" horiz-adv-x="1163" d="M47 0l449 1331h182l440 -1331h-162l-139 410h-522l-139 -410h-109zM324 494h467l-232 718zM358 1726l127 33l170 -293l-82 -16z" />
<glyph unicode="&#xc1;" horiz-adv-x="1163" d="M47 0l449 1331h182l440 -1331h-162l-139 410h-522l-139 -410h-109zM324 494h467l-232 718zM522 1456l158 297l129 -31l-209 -276z" />
<glyph unicode="&#xc2;" horiz-adv-x="1163" d="M47 0l449 1331h182l440 -1331h-162l-139 410h-522l-139 -410h-109zM317 1565l226 233h80l221 -233l-37 -66l-225 199l-226 -199zM324 494h467l-232 718z" />
<glyph unicode="&#xc3;" horiz-adv-x="1163" d="M47 0l449 1331h182l440 -1331h-162l-139 410h-522l-139 -410h-109zM266 1561q2 6 7.5 14t23.5 30.5t38.5 39t55.5 31t72 14.5q68 0 165 -47.5t146 -47.5q33 0 59.5 13.5t35.5 27.5l10 15l47 -52q-6 -12 -17.5 -29.5t-55.5 -46t-101 -28.5q-61 0 -162 47t-154 47 q-35 0 -65.5 -20.5t-43.5 -39.5l-14 -20zM324 494h467l-232 718z" />
<glyph unicode="&#xc4;" horiz-adv-x="1163" d="M47 0l449 1331h182l440 -1331h-162l-139 410h-522l-139 -410h-109zM324 494h467l-232 718zM352 1595q0 39 23 62q27 20 55 20q27 0 53 -20q23 -27 23 -62q0 -33 -23 -59q-27 -20 -53 -20q-29 0 -55 20q-23 23 -23 59zM668 1595q-1 39 22 62q27 20 53.5 20t53.5 -20 q25 -25 24 -62q0 -35 -24 -59q-27 -20 -53.5 -20t-53.5 20q-23 23 -22 59z" />
<glyph unicode="&#xc5;" horiz-adv-x="1163" d="M47 0l449 1331h182l440 -1331h-162l-139 410h-522l-139 -410h-109zM324 494h467l-232 718zM399 1595q0 90 51.5 141.5t131.5 51.5q78 0 130 -51.5t52 -141.5q0 -92 -50 -141t-132 -49t-132.5 49t-50.5 141zM457 1595q0 -70 34.5 -103.5t90 -33.5t89.5 33.5t34 103.5 q0 68 -35 103t-88 35q-55 0 -90 -35t-35 -103z" />
<glyph unicode="&#xc6;" horiz-adv-x="1615" d="M-25 0l760 1331h764v-98h-563v-512h514v-94h-514v-529h606v-98h-762v420h-450l-238 -420h-117zM375 504h405v729h-8z" />
<glyph unicode="&#xc7;" horiz-adv-x="1167" d="M98 653q0 319 156 508t418 189q94 0 191.5 -28t148.5 -56l51 -29l-19 -98q-20 12 -54 30.5t-128 48t-174 29.5q-199 0 -311.5 -150.5t-112.5 -439.5q0 -285 115 -430t321 -145q70 0 132.5 20.5t104.5 50t72.5 59.5t45.5 50l14 21l57 -66q-6 -10 -16 -25.5t-49 -56.5 t-86 -71.5t-125 -57t-166 -26.5l-12 -121l49 -13q49 -12 98 -53t49 -110q0 -92 -54 -144.5t-159 -52.5q-61 0 -108 21.5t-64 42.5l-16 22l37 41q45 -66 137 -66q135 0 135 140q0 53 -43 81.5t-86 35t-43 8.5l23 170q-252 18 -390.5 194t-138.5 477z" />
<glyph unicode="&#xc8;" horiz-adv-x="1038" d="M193 0v1331h716v-98h-561v-512h514v-94h-514v-529h606v-98h-761zM344 1726l127 33l170 -293l-82 -16z" />
<glyph unicode="&#xc9;" horiz-adv-x="1038" d="M193 0v1331h716v-98h-561v-512h514v-94h-514v-529h606v-98h-761zM508 1456l158 297l129 -31l-209 -276z" />
<glyph unicode="&#xca;" horiz-adv-x="1038" d="M193 0v1331h716v-98h-561v-512h514v-94h-514v-529h606v-98h-761zM311 1565l226 233h79l222 -233l-37 -66l-226 199l-225 -199z" />
<glyph unicode="&#xcb;" horiz-adv-x="1038" d="M193 0v1331h716v-98h-561v-512h514v-94h-514v-529h606v-98h-761zM313 1595q0 39 23 62q27 20 53 20q29 0 55 -20q23 -27 23 -62q0 -33 -23 -59q-27 -20 -55 -20q-27 0 -53 20q-23 23 -23 59zM629 1595q-1 39 22 62q27 20 53.5 20t53.5 -20q25 -25 24 -62q0 -35 -24 -59 q-27 -20 -53.5 -20t-53.5 20q-23 23 -22 59z" />
<glyph unicode="&#xcc;" horiz-adv-x="542" d="M39 1726l127 33l170 -293l-82 -16zM193 0v1331h155v-1331h-155z" />
<glyph unicode="&#xcd;" horiz-adv-x="542" d="M193 0v1331h155v-1331h-155zM203 1456l157 297l129 -31l-208 -276z" />
<glyph unicode="&#xce;" horiz-adv-x="542" d="M4 1565l225 233h80l221 -233l-36 -66l-226 199l-225 -199zM193 0v1331h155v-1331h-155z" />
<glyph unicode="&#xcf;" horiz-adv-x="542" d="M33 1595q-1 39 22 62q27 20 56 20q27 0 53 -20q23 -27 22 -62q0 -33 -22 -59q-27 -20 -53 -20q-29 0 -56 20q-23 23 -22 59zM193 0v1331h155v-1331h-155zM348 1595q0 39 23 62q27 20 53.5 20t52.5 -20q25 -25 25 -62q0 -35 -25 -59q-27 -20 -53.5 -20t-52.5 20 q-23 23 -23 59z" />
<glyph unicode="&#xd0;" horiz-adv-x="1306" d="M51 618v87h142v626h405q287 0 445.5 -173t158.5 -496q0 -322 -156.5 -492t-447.5 -170h-405v618h-142zM348 98h252q434 0 434 564q0 571 -436 571h-250v-528h387v-87h-387v-520z" />
<glyph unicode="&#xd1;" horiz-adv-x="1333" d="M193 0v1331h161l680 -1098l-6 50v1048h113v-1331h-135l-709 1135h-2l10 -64v-1071h-112zM354 1561q2 6 7.5 14t23.5 30.5t38.5 39t55.5 31t72 14.5q68 0 165 -47.5t146 -47.5q33 0 58.5 13.5t35.5 27.5l11 15l47 -52q-6 -12 -17.5 -29.5t-55.5 -46t-101 -28.5 q-61 0 -161.5 47t-154.5 47q-35 0 -65.5 -20.5t-43.5 -39.5l-14 -20z" />
<glyph unicode="&#xd2;" d="M98 664q0 317 150.5 501.5t419 184.5t421 -184.5t152.5 -501.5q0 -319 -151.5 -501.5t-421.5 -182.5q-268 0 -419 182t-151 502zM264 664q0 -287 103.5 -436.5t300 -149.5t302 149.5t105.5 436.5q0 285 -105.5 436t-301.5 151q-195 0 -299.5 -151.5t-104.5 -435.5z M436 1726l127 33l170 -293l-82 -16z" />
<glyph unicode="&#xd3;" d="M98 664q0 317 150.5 501.5t419 184.5t421 -184.5t152.5 -501.5q0 -319 -151.5 -501.5t-421.5 -182.5q-268 0 -419 182t-151 502zM264 664q0 -287 103.5 -436.5t300 -149.5t302 149.5t105.5 436.5q0 285 -105.5 436t-301.5 151q-195 0 -299.5 -151.5t-104.5 -435.5z M600 1456l158 297l129 -31l-209 -276z" />
<glyph unicode="&#xd4;" d="M98 664q0 317 150.5 501.5t419 184.5t421 -184.5t152.5 -501.5q0 -319 -151.5 -501.5t-421.5 -182.5q-268 0 -419 182t-151 502zM264 664q0 -287 103.5 -436.5t300 -149.5t302 149.5t105.5 436.5q0 285 -105.5 436t-301.5 151q-195 0 -299.5 -151.5t-104.5 -435.5z M403 1565l226 233h80l221 -233l-37 -66l-225 199l-226 -199z" />
<glyph unicode="&#xd5;" d="M98 664q0 317 150.5 501.5t419 184.5t421 -184.5t152.5 -501.5q0 -319 -151.5 -501.5t-421.5 -182.5q-268 0 -419 182t-151 502zM264 664q0 -287 103.5 -436.5t300 -149.5t302 149.5t105.5 436.5q0 285 -105.5 436t-301.5 151q-195 0 -299.5 -151.5t-104.5 -435.5z M344 1561q2 6 7 14t23.5 30.5t39 39t55.5 31t72 14.5q68 0 165 -47.5t146 -47.5q33 0 59.5 13.5t35.5 27.5l9 15l48 -52q-6 -12 -17.5 -29.5t-55.5 -46t-102 -28.5q-61 0 -161.5 47t-153.5 47q-35 0 -65.5 -20.5t-44.5 -39.5l-13 -20z" />
<glyph unicode="&#xd6;" d="M98 664q0 317 150.5 501.5t419 184.5t421 -184.5t152.5 -501.5q0 -319 -151.5 -501.5t-421.5 -182.5q-268 0 -419 182t-151 502zM264 664q0 -287 103.5 -436.5t300 -149.5t302 149.5t105.5 436.5q0 285 -105.5 436t-301.5 151q-195 0 -299.5 -151.5t-104.5 -435.5z M430 1595q0 39 23 62q27 20 55 20q27 0 53 -20q23 -27 23 -62q0 -33 -23 -59q-27 -20 -53 -20q-29 0 -55 20q-23 23 -23 59zM745 1595q0 39 23 62q27 20 53.5 20t52.5 -20q25 -25 25 -62q0 -35 -25 -59q-27 -20 -53 -20t-53 20q-23 23 -23 59z" />
<glyph unicode="&#xd7;" horiz-adv-x="722" d="M82 905l63 78l215 -252l218 252l63 -78l-215 -250l215 -249l-63 -76l-216 250l-215 -250l-63 76l213 249z" />
<glyph unicode="&#xd8;" d="M98 664q0 317 150.5 501.5t419.5 184.5q137 0 250 -54l77 195l58 -12l-84 -209q131 -82 201.5 -237.5t70.5 -368.5q0 -319 -151.5 -501.5t-421.5 -182.5q-106 0 -205 32l-88 -219l-53 12l90 228q-152 74 -233 235.5t-81 395.5zM264 664q0 -393 191 -525l419 1053 q-88 59 -206 59q-195 0 -299.5 -151t-104.5 -436zM502 111q72 -33 166 -33q197 0 302 149.5t105 436.5q0 344 -153 491z" />
<glyph unicode="&#xd9;" horiz-adv-x="1269" d="M176 434v897h154v-862q0 -186 82 -285.5t239 -99.5q164 0 247 101.5t83 283.5v862h113v-897q0 -209 -115 -331.5t-344 -122.5q-223 0 -341 122.5t-118 331.5zM436 1726l127 33l170 -293l-82 -16z" />
<glyph unicode="&#xda;" horiz-adv-x="1269" d="M176 434v897h154v-862q0 -186 82 -285.5t239 -99.5q164 0 247 101.5t83 283.5v862h113v-897q0 -209 -115 -331.5t-344 -122.5q-223 0 -341 122.5t-118 331.5zM561 1456l158 297l129 -31l-209 -276z" />
<glyph unicode="&#xdb;" horiz-adv-x="1269" d="M176 434v897h154v-862q0 -186 82 -285.5t239 -99.5q164 0 247 101.5t83 283.5v862h113v-897q0 -209 -115 -331.5t-344 -122.5q-223 0 -341 122.5t-118 331.5zM391 1565l225 233h80l222 -233l-37 -66l-226 199l-225 -199z" />
<glyph unicode="&#xdc;" horiz-adv-x="1269" d="M176 434v897h154v-862q0 -186 82 -285.5t239 -99.5q164 0 247 101.5t83 283.5v862h113v-897q0 -209 -115 -331.5t-344 -122.5q-223 0 -341 122.5t-118 331.5zM420 1595q-1 39 22 62q27 20 54 20q29 0 55 -20q23 -27 22 -62q0 -33 -22 -59q-27 -20 -55 -20q-27 0 -54 20 q-23 23 -22 59zM735 1595q0 39 23 62q27 20 53.5 20t52.5 -20q25 -25 25 -62q0 -35 -25 -59q-27 -20 -53.5 -20t-52.5 20q-23 23 -23 59z" />
<glyph unicode="&#xdd;" horiz-adv-x="1038" d="M4 1331h174l367 -655l364 655h125l-434 -770v-561h-156v551zM485 1456l158 297l129 -31l-209 -276z" />
<glyph unicode="&#xde;" horiz-adv-x="1052" d="M217 0v1331h154v-223h166q205 0 318.5 -107.5t113.5 -322.5q0 -123 -38 -214t-101.5 -141.5t-136 -75t-154.5 -24.5h-168v-223h-154zM371 315h155q285 0 285 357q0 342 -285 342h-155v-699z" />
<glyph unicode="&#xdf;" horiz-adv-x="1085" d="M154 0v1120q0 217 97 325.5t275 108.5q158 0 248 -75.5t90 -210.5q0 -190 -202 -275q350 -76 350 -506q0 -508 -396 -507q-78 0 -134 13t-73 26l-18 14l21 86q45 -45 168 -45q272 0 272 411q0 240 -87 340.5t-290 100.5v98q10 0 26.5 2t57.5 16.5t73 37t58.5 68.5 t26.5 105q0 102 -51.5 155.5t-147.5 53.5q-217 0 -217 -342v-1120h-147z" />
<glyph unicode="&#xe0;" horiz-adv-x="976" d="M66 231q0 301 579 363v108q0 145 -47 198.5t-166 53.5q-53 0 -115.5 -22.5t-98.5 -43.5l-36 -22l-16 84q139 94 289 94q176 0 258 -73.5t82 -259.5v-502q0 -139 53 -139q14 0 33.5 4t32.5 9l14 5l6 -70q-100 -39 -160 -38q-53 0 -81.5 33.5t-35.5 119.5h-2 q-2 -6 -9 -16.5t-30.5 -37t-54.5 -47t-83 -36.5t-113 -16q-135 0 -217 66.5t-82 184.5zM219 250q0 -88 51.5 -134t139.5 -46q47 0 89 15t67.5 36.5t44 44t26.5 38.5l8 15v299q-426 -47 -426 -268zM248 1450l127 33l170 -293l-82 -16z" />
<glyph unicode="&#xe1;" horiz-adv-x="976" d="M66 231q0 301 579 363v108q0 145 -47 198.5t-166 53.5q-53 0 -115.5 -22.5t-98.5 -43.5l-36 -22l-16 84q139 94 289 94q176 0 258 -73.5t82 -259.5v-502q0 -139 53 -139q14 0 33.5 4t32.5 9l14 5l6 -70q-100 -39 -160 -38q-53 0 -81.5 33.5t-35.5 119.5h-2 q-2 -6 -9 -16.5t-30.5 -37t-54.5 -47t-83 -36.5t-113 -16q-135 0 -217 66.5t-82 184.5zM219 250q0 -88 51.5 -134t139.5 -46q47 0 89 15t67.5 36.5t44 44t26.5 38.5l8 15v299q-426 -47 -426 -268zM410 1180l157 297l129 -31l-209 -277z" />
<glyph unicode="&#xe2;" horiz-adv-x="976" d="M66 231q0 301 579 363v108q0 145 -47 198.5t-166 53.5q-53 0 -115.5 -22.5t-98.5 -43.5l-36 -22l-16 84q139 94 289 94q176 0 258 -73.5t82 -259.5v-502q0 -139 53 -139q14 0 33.5 4t32.5 9l14 5l6 -70q-100 -39 -160 -38q-53 0 -81.5 33.5t-35.5 119.5h-2 q-2 -6 -9 -16.5t-30.5 -37t-54.5 -47t-83 -36.5t-113 -16q-135 0 -217 66.5t-82 184.5zM213 1288l225 234h80l221 -234l-37 -65l-225 198l-225 -198zM219 250q0 -88 51.5 -134t139.5 -46q47 0 89 15t67.5 36.5t44 44t26.5 38.5l8 15v299q-426 -47 -426 -268z" />
<glyph unicode="&#xe3;" horiz-adv-x="976" d="M66 231q0 301 579 363v108q0 145 -47 198.5t-166 53.5q-53 0 -115.5 -22.5t-98.5 -43.5l-36 -22l-16 84q139 94 289 94q176 0 258 -73.5t82 -259.5v-502q0 -139 53 -139q14 0 33.5 4t32.5 9l14 5l6 -70q-100 -39 -160 -38q-53 0 -81.5 33.5t-35.5 119.5h-2 q-2 -6 -9 -16.5t-30.5 -37t-54.5 -47t-83 -36.5t-113 -16q-135 0 -217 66.5t-82 184.5zM156 1284q2 6 7 14.5t23.5 31t39 38.5t55 30.5t71.5 14.5q68 0 165 -47t147 -47q33 0 59.5 14.5t35.5 27.5l9 13l47 -51q-6 -12 -17.5 -29.5t-55.5 -46t-101 -28.5q-61 0 -161.5 47 t-153.5 47q-35 0 -66 -19.5t-44 -40.5l-13 -20zM219 250q0 -88 51.5 -134t139.5 -46q47 0 89 15t67.5 36.5t44 44t26.5 38.5l8 15v299q-426 -47 -426 -268z" />
<glyph unicode="&#xe4;" horiz-adv-x="976" d="M66 231q0 301 579 363v108q0 145 -47 198.5t-166 53.5q-53 0 -115.5 -22.5t-98.5 -43.5l-36 -22l-16 84q139 94 289 94q176 0 258 -73.5t82 -259.5v-502q0 -139 53 -139q14 0 33.5 4t32.5 9l14 5l6 -70q-100 -39 -160 -38q-53 0 -81.5 33.5t-35.5 119.5h-2 q-2 -6 -9 -16.5t-30.5 -37t-54.5 -47t-83 -36.5t-113 -16q-135 0 -217 66.5t-82 184.5zM219 250q0 -88 51.5 -134t139.5 -46q47 0 89 15t67.5 36.5t44 44t26.5 38.5l8 15v299q-426 -47 -426 -268zM240 1319q-1 38 22 61q27 20 53 21q29 0 56 -21q23 -27 22 -61 q0 -33 -22 -59q-27 -20 -56 -21q-27 0 -53 21q-23 23 -22 59zM555 1319q0 38 23 61q27 20 53 20.5t53 -20.5q25 -25 25 -61q0 -35 -25 -59q-27 -20 -53.5 -20.5t-52.5 20.5q-23 23 -23 59z" />
<glyph unicode="&#xe5;" horiz-adv-x="976" d="M66 231q0 301 579 363v108q0 145 -47 198.5t-166 53.5q-53 0 -115.5 -22.5t-98.5 -43.5l-36 -22l-16 84q139 94 289 94q176 0 258 -73.5t82 -259.5v-502q0 -139 53 -139q14 0 33.5 4t32.5 9l14 5l6 -70q-100 -39 -160 -38q-53 0 -81.5 33.5t-35.5 119.5h-2 q-2 -6 -9 -16.5t-30.5 -37t-54.5 -47t-83 -36.5t-113 -16q-135 0 -217 66.5t-82 184.5zM219 250q0 -88 51.5 -134t139.5 -46q47 0 89 15t67.5 36.5t44 44t26.5 38.5l8 15v299q-426 -47 -426 -268zM295 1319q0 90 51 141t131 51q78 0 130 -51t52 -141q0 -92 -50 -141.5 t-132 -49.5t-132 49.5t-50 141.5zM352 1319q0 -70 35 -103.5t90 -33.5t89 33.5t34 103.5t-34 103.5t-89 33.5t-90 -35t-35 -102z" />
<glyph unicode="&#xe6;" horiz-adv-x="1488" d="M66 233q0 307 571 363v82q0 156 -40 216t-151 60q-53 0 -114.5 -22.5t-97.5 -43.5l-35 -22l-19 84q139 94 291 94q113 0 175.5 -39.5t86.5 -127.5q111 168 324 167q176 0 271 -121.5t95 -344.5l-10 -95h-620q0 -414 299 -413q51 0 97 13t74.5 32.5t51 40t32.5 33.5l9 14 l59 -49q-4 -6 -11 -18.5t-37 -42.5t-65.5 -53.5t-96 -41.5t-130.5 -18q-301 0 -397 256q-76 -256 -313 -256q-133 0 -216 67.5t-83 185.5zM219 252q0 -88 52.5 -135t138.5 -47q53 0 94 24.5t64.5 60t40 86t23.5 88.5t9 79q-4 53 -4 84v30q-418 -47 -418 -270zM795 569h489 q2 20 2 39q0 348 -229 348q-242 0 -262 -387z" />
<glyph unicode="&#xe7;" horiz-adv-x="866" d="M76 502q0 262 113.5 402t332.5 140q72 0 143.5 -22.5t107.5 -43.5l36 -22l-18 -84q-117 82 -252 82q-158 0 -232 -104.5t-74 -345.5q0 -434 297 -434q49 0 94.5 13t73 31.5t48 37t29.5 31.5l9 14l66 -43q-4 -6 -10 -17.5t-33 -41t-59.5 -52.5t-91 -42t-124.5 -21 l-12 -121l49 -13q49 -12 98.5 -53t49.5 -110q0 -92 -54.5 -144.5t-158.5 -52.5q-61 0 -108.5 21.5t-63.5 42.5l-17 22l37 41q45 -66 137 -66q135 0 136 140q0 53 -43 81.5t-86 35t-43 8.5l22 170q-193 12 -296 142t-103 378z" />
<glyph unicode="&#xe8;" horiz-adv-x="927" d="M76 492q0 258 112.5 405t307.5 147q176 0 271 -121.5t95 -344.5l-10 -95h-621q0 -414 299 -413q51 0 97.5 13t75 32.5t51 40t31.5 33.5l10 14l59 -49q-4 -6 -11 -18.5t-37 -42.5t-65.5 -53.5t-96 -41.5t-130.5 -18q-205 0 -321.5 128t-116.5 384zM233 569h490q2 20 2 39 q0 348 -229 348q-242 0 -263 -387zM266 1450l127 33l170 -293l-82 -16z" />
<glyph unicode="&#xe9;" horiz-adv-x="927" d="M76 492q0 258 112.5 405t307.5 147q176 0 271 -121.5t95 -344.5l-10 -95h-621q0 -414 299 -413q51 0 97.5 13t75 32.5t51 40t31.5 33.5l10 14l59 -49q-4 -6 -11 -18.5t-37 -42.5t-65.5 -53.5t-96 -41.5t-130.5 -18q-205 0 -321.5 128t-116.5 384zM233 569h490q2 20 2 39 q0 348 -229 348q-242 0 -263 -387zM430 1180l158 297l129 -31l-209 -277z" />
<glyph unicode="&#xea;" horiz-adv-x="927" d="M76 492q0 258 112.5 405t307.5 147q176 0 271 -121.5t95 -344.5l-10 -95h-621q0 -414 299 -413q51 0 97.5 13t75 32.5t51 40t31.5 33.5l10 14l59 -49q-4 -6 -11 -18.5t-37 -42.5t-65.5 -53.5t-96 -41.5t-130.5 -18q-205 0 -321.5 128t-116.5 384zM231 1288l226 234h80 l221 -234l-37 -65l-225 198l-226 -198zM233 569h490q2 20 2 39q0 348 -229 348q-242 0 -263 -387z" />
<glyph unicode="&#xeb;" horiz-adv-x="927" d="M76 492q0 258 112.5 405t307.5 147q176 0 271 -121.5t95 -344.5l-10 -95h-621q0 -414 299 -413q51 0 97.5 13t75 32.5t51 40t31.5 33.5l10 14l59 -49q-4 -6 -11 -18.5t-37 -42.5t-65.5 -53.5t-96 -41.5t-130.5 -18q-205 0 -321.5 128t-116.5 384zM233 569h490q2 20 2 39 q0 348 -229 348q-242 0 -263 -387zM260 1319q0 38 23 61q27 20 53 21q29 0 55 -21q23 -27 23 -61q0 -33 -23 -59q-27 -20 -55 -21q-27 0 -53 21q-23 23 -23 59zM575 1319q0 38 23 61q27 20 53.5 20.5t53.5 -20.5q25 -25 24 -61q0 -35 -24 -59q-27 -20 -53.5 -20.5 t-53.5 20.5q-23 23 -23 59z" />
<glyph unicode="&#xec;" horiz-adv-x="454" d="M-6 1450l127 33l170 -293l-82 -16zM152 0v1024h149v-1024h-149z" />
<glyph unicode="&#xed;" horiz-adv-x="454" d="M152 0v1024h149v-1024h-149zM158 1180l157 297l129 -31l-208 -277z" />
<glyph unicode="&#xee;" horiz-adv-x="454" d="M-37 1288l225 234h80l221 -234l-36 -65l-226 198l-225 -198zM152 0v1024h149v-1024h-149z" />
<glyph unicode="&#xef;" horiz-adv-x="454" d="M-8 1319q-1 38 22 61q27 20 56 21q27 0 53 -21q23 -27 22 -61q0 -33 -22 -59q-27 -20 -53 -21q-29 0 -56 21q-23 23 -22 59zM152 0v1024h149v-1024h-149zM307 1319q0 38 23 61q27 20 53.5 20.5t52.5 -20.5q25 -25 25 -61q0 -35 -25 -59q-27 -20 -53.5 -20.5t-52.5 20.5 q-23 23 -23 59z" />
<glyph unicode="&#xf0;" horiz-adv-x="1040" d="M78 512q0 252 108.5 392t311.5 140q172 0 290 -135q-47 260 -186 422l-221 -127l-25 53l205 117q-51 51 -119 96l78 46q68 -37 129 -93l170 99l25 -54l-152 -86q258 -274 258 -845q0 -270 -111.5 -413.5t-326.5 -143.5q-207 0 -320.5 140t-113.5 392zM233 512 q0 -223 68 -333.5t211 -110.5t211 110.5t68 333.5q0 444 -279 444t-279 -444z" />
<glyph unicode="&#xf1;" horiz-adv-x="1048" d="M154 0v1024h122l19 -98q102 119 303 118q147 0 229 -82.5t82 -246.5v-715h-149v684q0 252 -211 252q-74 0 -136.5 -25.5t-86.5 -51.5l-25 -25v-834h-147zM174 1284q2 6 7 14.5t23.5 31t39 38.5t55.5 30.5t72 14.5q68 0 165 -47t146 -47q33 0 58.5 14.5t35.5 27.5l10 13 l48 -51q-6 -12 -17.5 -29.5t-55.5 -46t-102 -28.5q-61 0 -161.5 47t-153.5 47q-35 0 -65.5 -19.5t-44.5 -40.5l-13 -20z" />
<glyph unicode="&#xf2;" horiz-adv-x="1026" d="M76 512q0 254 111.5 393t324.5 139t324.5 -139t111.5 -393q0 -252 -113.5 -392t-322.5 -140q-213 0 -324.5 139t-111.5 393zM233 512q0 -223 68 -332.5t211 -109.5q279 0 279 442t-279 442q-143 0 -211 -109.5t-68 -332.5zM270 1450l127 33l170 -293l-82 -16z" />
<glyph unicode="&#xf3;" horiz-adv-x="1026" d="M76 512q0 254 111.5 393t324.5 139t324.5 -139t111.5 -393q0 -252 -113.5 -392t-322.5 -140q-213 0 -324.5 139t-111.5 393zM233 512q0 -223 68 -332.5t211 -109.5q279 0 279 442t-279 442q-143 0 -211 -109.5t-68 -332.5zM434 1180l158 297l129 -31l-209 -277z" />
<glyph unicode="&#xf4;" horiz-adv-x="1026" d="M76 512q0 254 111.5 393t324.5 139t324.5 -139t111.5 -393q0 -252 -113.5 -392t-322.5 -140q-213 0 -324.5 139t-111.5 393zM233 512q0 -223 68 -332.5t211 -109.5q279 0 279 442t-279 442q-143 0 -211 -109.5t-68 -332.5zM236 1288l225 234h80l221 -234l-37 -65 l-225 198l-226 -198z" />
<glyph unicode="&#xf5;" horiz-adv-x="1026" d="M76 512q0 254 111.5 393t324.5 139t324.5 -139t111.5 -393q0 -252 -113.5 -392t-322.5 -140q-213 0 -324.5 139t-111.5 393zM178 1284q2 6 7 14.5t23.5 31t39 38.5t55.5 30.5t72 14.5q68 0 165 -47t146 -47q33 0 58.5 14.5t35.5 27.5l11 13l47 -51q-6 -12 -17.5 -29.5 t-55.5 -46t-101 -28.5q-61 0 -162 47t-154 47q-35 0 -65.5 -19.5t-43.5 -40.5l-14 -20zM233 512q0 -223 68 -332.5t211 -109.5q279 0 279 442t-279 442q-143 0 -211 -109.5t-68 -332.5z" />
<glyph unicode="&#xf6;" horiz-adv-x="1026" d="M76 512q0 254 111.5 393t324.5 139t324.5 -139t111.5 -393q0 -252 -113.5 -392t-322.5 -140q-213 0 -324.5 139t-111.5 393zM233 512q0 -223 68 -332.5t211 -109.5q279 0 279 442t-279 442q-143 0 -211 -109.5t-68 -332.5zM264 1319q0 38 23 61q27 20 53 21q29 0 55 -21 q23 -27 23 -61q0 -33 -23 -59q-27 -20 -55 -21q-27 0 -53 21q-23 23 -23 59zM580 1319q-1 38 22 61q27 20 53.5 20.5t53.5 -20.5q25 -25 24 -61q0 -35 -24 -59q-27 -20 -53.5 -20.5t-53.5 20.5q-23 23 -22 59z" />
<glyph unicode="&#xf7;" horiz-adv-x="960" d="M70 471v96h823v-96h-823zM385 135.5q0 42.5 29 69.5q29 25 63 24q39 0 66 -24q27 -27 26.5 -70t-26.5 -69q-27 -25 -66 -25q-35 0 -63 25q-29 27 -29 69.5zM389 903.5q0 42.5 29 69.5q29 25 63 24q39 0 66 -24q27 -27 26.5 -70t-26.5 -69q-27 -25 -66 -25q-35 0 -63 25 q-29 27 -29 69.5z" />
<glyph unicode="&#xf8;" horiz-adv-x="1044" d="M76 512q0 254 111.5 393t324.5 139q94 0 170 -28l123 315l76 -12l-131 -338q198 -125 198 -469q0 -252 -113.5 -392t-322.5 -140q-77 0 -141 18l-142 -365l-73 13l145 381q-225 117 -225 485zM233 512q0 -285 107 -383l305 791q-57 34 -133 34q-143 0 -211 -109.5 t-68 -332.5zM406 88q45 -18 106 -18q279 0 279 442q0 250 -84 354z" />
<glyph unicode="&#xf9;" horiz-adv-x="1048" d="M139 309v715h150v-684q0 -252 213 -252q74 0 134 25.5t85 52.5l24 27v831h150v-1024h-125l-20 98q-14 -18 -38 -39.5t-96.5 -50t-162.5 -28.5q-150 0 -232 82.5t-82 246.5zM287 1450l127 33l170 -293l-82 -16z" />
<glyph unicode="&#xfa;" horiz-adv-x="1048" d="M139 309v715h150v-684q0 -252 213 -252q74 0 134 25.5t85 52.5l24 27v831h150v-1024h-125l-20 98q-14 -18 -38 -39.5t-96.5 -50t-162.5 -28.5q-150 0 -232 82.5t-82 246.5zM451 1180l157 297l129 -31l-209 -277z" />
<glyph unicode="&#xfb;" horiz-adv-x="1048" d="M139 309v715h150v-684q0 -252 213 -252q74 0 134 25.5t85 52.5l24 27v831h150v-1024h-125l-20 98q-14 -18 -38 -39.5t-96.5 -50t-162.5 -28.5q-150 0 -232 82.5t-82 246.5zM254 1288l225 234h80l221 -234l-37 -65l-225 198l-225 -198z" />
<glyph unicode="&#xfc;" horiz-adv-x="1048" d="M139 309v715h150v-684q0 -252 213 -252q74 0 134 25.5t85 52.5l24 27v831h150v-1024h-125l-20 98q-14 -18 -38 -39.5t-96.5 -50t-162.5 -28.5q-150 0 -232 82.5t-82 246.5zM283 1319q-1 38 22 61q27 20 55 21q27 0 54 -21q23 -27 22 -61q0 -33 -22 -59q-27 -20 -54 -21 q-29 0 -55 21q-23 23 -22 59zM598 1319q0 38 23 61q27 20 53 20.5t53 -20.5q25 -25 25 -61q0 -35 -25 -59q-27 -20 -53.5 -20.5t-52.5 20.5q-23 23 -23 59z" />
<glyph unicode="&#xfd;" horiz-adv-x="919" d="M31 1024h176l303 -856l274 856h109l-354 -1040q-43 -121 -77 -201t-81 -159t-103.5 -117.5t-121.5 -38.5q-37 0 -68 6t-43 13l-12 7l16 94q39 -18 84 -18q94 0 157.5 101.5t141.5 316.5zM418 1180l157 297l130 -31l-209 -277z" />
<glyph unicode="&#xfe;" horiz-adv-x="1052" d="M150 -516v1540h2v508l149 8v-633h2q2 6 8 15.5t27.5 33t50.5 42t78 34t108 15.5q182 0 293 -134.5t111 -371.5q0 -258 -108.5 -411t-313.5 -153q-164 0 -258 89v-578zM301 168q8 -12 26.5 -30.5t72 -40t118.5 -21.5q158 0 230.5 115.5t72.5 345.5q0 411 -289 411 q-55 0 -102 -19.5t-73.5 -50t-38 -48t-17.5 -29.5v-633z" />
<glyph unicode="&#xff;" horiz-adv-x="919" d="M31 1024h176l303 -856l274 856h109l-354 -1040q-43 -121 -77 -201t-81 -159t-103.5 -117.5t-121.5 -38.5q-37 0 -68 6t-43 13l-12 7l16 94q39 -18 84 -18q94 0 157.5 101.5t141.5 316.5zM248 1319q-1 38 22 61q27 20 54 21q29 0 55 -21q23 -27 22 -61q0 -33 -22 -59 q-27 -20 -55 -21q-27 0 -54 21q-23 23 -22 59zM563 1319q0 38 23 61q27 20 53.5 20.5t52.5 -20.5q25 -25 25 -61q0 -35 -25 -59q-27 -20 -53.5 -20.5t-52.5 20.5q-23 23 -23 59z" />
<glyph unicode="&#x152;" horiz-adv-x="1925" d="M98 664q0 317 150.5 501.5t419.5 184.5q260 0 411 -174v155h719v-98h-563v-449q4 -41 4 -63h510v-94h-508l-6 -86v-443h608v-98h-764v152q-154 -172 -411 -172q-268 0 -419 182t-151 502zM264 664q0 -287 103.5 -436.5t300 -149.5t302 149.5t105.5 436.5 q0 285 -105.5 436t-301.5 151q-195 0 -299.5 -151.5t-104.5 -435.5z" />
<glyph unicode="&#x153;" horiz-adv-x="1644" d="M76 512q0 254 111.5 393t324.5 139q252 0 360 -194q113 195 340 194q176 0 271.5 -121.5t95.5 -344.5l-10 -95h-621q0 -414 299 -413q51 0 97.5 13t75 32.5t51 40t31.5 33.5l9 14l60 -49q-4 -6 -11.5 -18.5t-37 -42.5t-65.5 -53.5t-96.5 -41.5t-129.5 -18 q-256 0 -365 186q-115 -186 -354 -186q-213 0 -324.5 139t-111.5 393zM233 512q0 -223 68 -332.5t211 -109.5q279 0 279 442t-279 442q-143 0 -211 -109.5t-68 -332.5zM950 569h490q2 20 2 39q-1 348 -230 348q-242 0 -262 -387z" />
<glyph unicode="&#x178;" horiz-adv-x="1038" d="M4 1331h174l367 -655l364 655h125l-434 -770v-561h-156v551zM307 1595q0 39 23 62q27 20 55 20q27 0 53 -20q23 -27 23 -62q0 -33 -23 -59q-27 -20 -53 -20q-29 0 -55 20q-23 23 -23 59zM623 1595q-1 39 22 62q27 20 53.5 20t53.5 -20q25 -25 24 -62q0 -35 -24 -59 q-27 -20 -53.5 -20t-53.5 20q-23 23 -22 59z" />
<glyph unicode="&#x2c6;" horiz-adv-x="688" d="M78 1288l225 234h80l221 -234l-37 -65l-225 198l-225 -198z" />
<glyph unicode="&#x2dc;" horiz-adv-x="811" d="M78 1284q2 6 7 14.5t23.5 31t39 38.5t55.5 30.5t71 14.5q68 0 165.5 -47t146.5 -47q33 0 59.5 14.5t35.5 27.5l9 13l47 -51q-6 -12 -17 -29.5t-55 -46t-102 -28.5q-61 0 -161.5 47t-153.5 47q-35 0 -65.5 -19.5t-44.5 -40.5l-13 -20z" />
<glyph unicode="&#x2000;" horiz-adv-x="899" />
<glyph unicode="&#x2001;" horiz-adv-x="1798" />
<glyph unicode="&#x2002;" horiz-adv-x="899" />
<glyph unicode="&#x2003;" horiz-adv-x="1798" />
<glyph unicode="&#x2004;" horiz-adv-x="599" />
<glyph unicode="&#x2005;" horiz-adv-x="449" />
<glyph unicode="&#x2006;" horiz-adv-x="299" />
<glyph unicode="&#x2007;" horiz-adv-x="299" />
<glyph unicode="&#x2008;" horiz-adv-x="224" />
<glyph unicode="&#x2009;" horiz-adv-x="359" />
<glyph unicode="&#x200a;" horiz-adv-x="99" />
<glyph unicode="&#x2010;" horiz-adv-x="608" d="M70 520v96h469v-96h-469z" />
<glyph unicode="&#x2011;" horiz-adv-x="608" d="M70 520v96h469v-96h-469z" />
<glyph unicode="&#x2012;" horiz-adv-x="608" d="M70 520v96h469v-96h-469z" />
<glyph unicode="&#x2013;" horiz-adv-x="962" d="M70 520v96h823v-96h-823z" />
<glyph unicode="&#x2014;" horiz-adv-x="1275" d="M70 520v96h1138v-96h-1138z" />
<glyph unicode="&#x2018;" horiz-adv-x="288" d="M45 1149q0 98 52.5 218t129.5 183l43 -45q-63 -57 -102 -147t-39 -168v-10h8q31 0 56 -19q23 -27 23 -61.5t-23 -61.5q-27 -23 -58 -22q-33 0 -55 22l-8 9q-27 35 -27 102z" />
<glyph unicode="&#x2019;" horiz-adv-x="288" d="M2 1055q63 57 102 147t39 166v10h-8q-33 0 -53 21q-25 25 -25 61.5t25 61.5q20 20 55 20t58 -20q2 -2 14 -21q18 -37 18 -92q0 -98 -51 -217t-129 -184z" />
<glyph unicode="&#x201a;" horiz-adv-x="288" d="M2 -287q63 59 102 148.5t39 165.5v10h-8q-33 0 -53 20q-25 25 -25 61.5t25 61.5q20 20 55 20.5t58 -20.5q2 -2 14 -20q18 -37 18 -92q0 -98 -51 -217t-129 -185z" />
<glyph unicode="&#x201c;" horiz-adv-x="593" d="M45 1149q0 98 52.5 218t129.5 183l43 -45q-63 -57 -102 -147t-39 -168v-10h8q31 0 56 -19q23 -27 23 -61.5t-23 -61.5q-27 -23 -58 -22q-33 0 -55 22l-8 9q-27 35 -27 102zM348 1149q0 98 52.5 218t129.5 183l43 -45q-63 -57 -102 -147t-39 -168v-10h8q31 0 56 -19 q23 -27 23 -61.5t-23 -61.5q-27 -23 -58 -22q-33 0 -55 22l-8 9q-27 35 -27 102z" />
<glyph unicode="&#x201d;" horiz-adv-x="593" d="M2 1055q63 57 102 147t39 166v10h-8q-33 0 -53 21q-25 25 -25 61.5t25 61.5q20 20 55 20t58 -20q2 -2 14 -21q18 -37 18 -92q0 -98 -51 -217t-129 -184zM305 1055q63 57 102 147t39 166v10h-8q-33 0 -53 21q-25 25 -25 61.5t25 61.5q20 20 55 20t58 -20q2 -2 14 -21 q18 -37 18 -92q0 -98 -51 -217t-129 -184z" />
<glyph unicode="&#x201e;" horiz-adv-x="593" d="M2 -287q63 59 102 148.5t39 165.5v10h-8q-33 0 -53 20q-25 25 -25 61.5t25 61.5q20 20 55 20.5t58 -20.5q2 -2 14 -20q18 -37 18 -92q0 -98 -51 -217t-129 -185zM305 -287q63 59 102 148.5t39 165.5v10h-8q-33 0 -53 20q-25 25 -25 61.5t25 61.5q20 20 55 20.5t58 -20.5 q2 -2 14 -20q18 -37 18 -92q0 -98 -51 -217t-129 -185z" />
<glyph unicode="&#x2022;" horiz-adv-x="614" d="M139 657q0 76 47 121q47 41 110.5 41t111.5 -41q47 -47 47 -121q0 -72 -47 -118q-43 -41 -111 -41t-111 41q-47 45 -47 118z" />
<glyph unicode="&#x2026;" horiz-adv-x="1357" d="M153 75.5q0 42.5 29 69.5q27 25 64 25t65 -25q27 -27 27 -69.5t-27 -69.5q-29 -25 -65.5 -24.5t-63.5 24.5q-29 27 -29 69.5zM583 75.5q0 42.5 29 69.5q27 25 64 25t65 -25q27 -27 27 -69.5t-27 -69.5q-29 -25 -65.5 -24.5t-63.5 24.5q-29 27 -29 69.5zM1013 75.5 q0 42.5 29 69.5q27 25 64 25t65 -25q27 -27 27 -69.5t-27 -69.5q-29 -25 -65.5 -24.5t-63.5 24.5q-29 27 -29 69.5z" />
<glyph unicode="&#x202f;" horiz-adv-x="359" />
<glyph unicode="&#x2039;" horiz-adv-x="661" d="M170 512l317 350l45 -53l-221 -299l221 -303l-47 -55z" />
<glyph unicode="&#x203a;" horiz-adv-x="661" d="M125 205l221 297l-219 305l47 55l313 -362l-315 -348z" />
<glyph unicode="&#x205f;" horiz-adv-x="449" />
<glyph unicode="&#x20ac;" horiz-adv-x="1167" d="M94 469v82h117q-4 66 -4 104q0 59 2 88l-115 7v79h121q63 518 510 519q92 0 179 -27t129 -52l42 -26l-18 -92l-44 27q-28 18 -111 45.5t-161 27.5q-174 0 -260 -100t-106 -322h504v-90h-508q-2 -27 -2 -84q0 -72 2 -104h508v-90h-500q25 -207 115 -298t260 -91 q98 0 181 42t118 83l34 41l33 -68q-4 -8 -14 -20.5t-45 -45t-77 -58.5t-111.5 -46t-147.5 -20q-438 0 -506 483z" />
<glyph unicode="&#x2122;" horiz-adv-x="1538" d="M119 1462v74h223v-2h92v2h260v-74h-260v-643h-92v643h-223zM739 819l37 717h96l207 -629l232 629h90l20 -717h-88l-18 555l-205 -555h-82l-203 576l-16 -576h-70z" />
<glyph unicode="&#xe000;" horiz-adv-x="1025" d="M0 1025h1025v-1025h-1025v1025z" />
<glyph unicode="&#xfb01;" horiz-adv-x="1075" d="M88 924v86l107 12v147q0 199 75.5 292t255.5 93q170 0 287 -153q14 6 35 6q39 0 61 -21q25 -27 25 -67q0 -37 -25 -66q-29 -23 -61 -22q-37 0 -60 22q-27 27 -26 66q0 20 6 35q-90 106 -213 106q-119 0 -166 -66.5t-47 -240.5v-129h297v-100h-297v-924h-147v924h-107z M772 0v1024h150v-1024h-150z" />
<glyph unicode="&#xfb02;" horiz-adv-x="1071" d="M88 924v86l107 12v147q0 385 266 385q133 0 307 -81v59l147 8v-1540h-147v1382q-160 80 -268 80q-86 0 -122 -67.5t-36 -241.5v-129h297v-100h-297v-924h-147v924h-107z" />
<glyph unicode="&#xfb03;" horiz-adv-x="1736" d="M1423 1318.5q0 38.5 27 65.5q23 23 59 23q39 0 62 -21q24 -26 24 -64q0 -14 -2.5 -25.5t-8 -22.5t-13.5 -21q-28 -22 -59 -22h-3q-37 0 -59 22q-27 27 -27 65.5zM1434 0v1024h149v-1024h-149zM729 924v86l107 12v147q0 199 61 292t207 93q49 0 97 -15t73 -30l24 -14 l-20 -80q-70 47 -148 47q-80 0 -113.5 -65.5t-33.5 -243.5v-129h297v-100h-297v-924h-147v924h-107zM88 924v86l107 12v147q0 199 61 292t207 93q49 0 97 -15t73 -30l24 -14l-20 -80q-70 47 -148 47q-80 0 -113.5 -65.5t-33.5 -243.5v-129h297v-100h-297v-924h-147v924h-107 z" />
<glyph unicode="&#xfb04;" horiz-adv-x="1738" d="M1436 0v1532l147 8v-1540h-147zM729 924v86l107 12v147q0 199 61 292t207 93q49 0 97 -15t73 -30l24 -14l-20 -80q-70 47 -148 47q-80 0 -113.5 -65.5t-33.5 -243.5v-129h297v-100h-297v-924h-147v924h-107zM88 924v86l107 12v147q0 199 61 292t207 93q49 0 97 -15 t73 -30l24 -14l-20 -80q-70 47 -148 47q-80 0 -113.5 -65.5t-33.5 -243.5v-129h297v-100h-297v-924h-147v924h-107z" />
</font>
</defs>
</svg>
